<?xml version="1.0" encoding="utf-8"?>
<!-- Generator: Adobe Illustrator 15.0.0, SVG Export Plug-In . SVG Version: 6.00 Build 0)  -->
<!DOCTYPE svg PUBLIC "-//W3C//DTD SVG 1.1//EN" "http://www.w3.org/Graphics/SVG/1.1/DTD/svg11.dtd">
<svg version="1.1" id="Layer_1" xmlns="http://www.w3.org/2000/svg" xmlns:xlink="http://www.w3.org/1999/xlink" x="0px" y="0px"
	 width="1792px" height="1792px" viewBox="0 0 1792 1792" enable-background="new 0 0 1792 1792" xml:space="preserve">
<path d="M1408,928v320c0,79.333-28.167,147.167-84.5,203.5S1199.333,1536,1120,1536H288c-79.333,0-147.167-28.167-203.5-84.5
	S0,1327.333,0,1248V416c0-79.333,28.167-147.167,84.5-203.5S208.667,128,288,128h704c9.333,0,17,3,23,9s9,13.667,9,23v64
	c0,9.333-3,17-9,23s-13.667,9-23,9H288c-44,0-81.667,15.667-113,47c-31.333,31.333-47,69-47,113v832c0,44,15.667,81.667,47,113
	s69,47,113,47h832c44,0,81.667-15.667,113-47s47-69,47-113V928c0-9.333,3-17,9-23s13.667-9,23-9h64c9.333,0,17,3,23,9
	S1408,918.667,1408,928z M1792,64v512c0,17.333-6.333,32.333-19,45s-27.667,19-45,19s-32.333-6.333-45-19l-176-176l-652,652
	c-6.667,6.667-14.333,10-23,10s-16.333-3.333-23-10L695,983c-6.667-6.667-10-14.333-10-23s3.333-16.333,10-23l652-652l-176-176
	c-12.667-12.667-19-27.667-19-45s6.333-32.333,19-45s27.667-19,45-19h512c17.333,0,32.333,6.333,45,19S1792,46.667,1792,64z" path="#fff"/>
</svg>
